<svg width="192" height="576" viewBox="0 0 192 576" fill="none" xmlns="http://www.w3.org/2000/svg">
    <path
        d="M170.232 480.47C169.08 475.341 167.471 470.327 165.424 465.491C166 463.312 166.576 461.069 167.025 458.757C171.176 437.677 170.122 415.25 164.33 401.613C164.176 401.244 163.94 400.916 163.64 400.653C163.341 400.39 162.986 400.2 162.603 400.097C162.225 399.99 161.828 399.971 161.442 400.043C161.055 400.114 160.691 400.274 160.375 400.509C158.647 401.764 156.183 403.414 153.304 405.268C146.453 409.742 136.935 415.976 128.431 423.459C120.744 420.784 112.479 420.273 104.525 421.984C98.8806 423.175 93.0526 423.175 87.4078 421.984C79.7409 420.361 71.7866 420.794 64.3368 423.239C55.9076 415.836 46.5226 409.689 39.7516 405.268C36.8728 403.391 34.397 401.741 32.6697 400.509C32.3549 400.274 31.991 400.114 31.6058 400.043C31.2206 399.971 30.8243 399.99 30.4472 400.097C30.0641 400.2 29.7095 400.391 29.4103 400.654C29.111 400.917 28.8749 401.245 28.7199 401.613C22.9565 415.25 21.8971 437.677 26.0541 458.757C26.3996 460.5 26.8084 462.243 27.2344 463.916C24.8576 469.235 23.0136 474.78 21.7301 480.47C20.1474 487.418 19.6462 494.573 20.2446 501.677C20.2446 502.06 20.2964 502.374 20.3137 502.624C20.331 502.874 20.3137 503.205 20.3483 503.617C20.4634 507.226 20.734 515.674 23.8029 524.099C27.6893 534.882 34.587 541.529 44.3174 543.766C51.1288 545.352 56.3279 546.305 60.4389 546.898C61.0653 547.838 61.6159 548.827 62.0856 549.855C62.7227 551.242 63.8469 552.342 65.2408 552.941C70.676 555.265 85.3466 560 96.004 560C106.661 560 121.338 555.241 126.773 552.941C128.167 552.342 129.291 551.242 129.928 549.855C130.398 548.827 130.949 547.838 131.575 546.898C135.697 546.317 140.897 545.352 147.696 543.766C157.427 541.5 164.324 534.882 168.211 524.099C171.245 515.674 171.522 507.249 171.666 503.617C171.666 503.211 171.666 502.874 171.7 502.624C171.735 502.374 171.74 502.043 171.769 501.677C172.351 494.57 171.832 487.415 170.232 480.47ZM109.201 536.068L107.986 536.166H107.836C105.625 536.591 103.604 538.113 101.906 539.897H90.8221C89.0948 538.113 87.0969 536.591 84.886 536.166L83.5272 536.05C74.1249 535.307 56.6273 533.924 51.9348 531.489C47.5245 529.165 44.6629 526.731 45.0947 513.826C45.2962 507.673 47.6339 500.863 51.7621 493.973L51.9118 493.833C52.0026 493.753 52.082 493.662 52.1479 493.56C55.8868 487.543 60.3697 482.032 65.4884 477.158C67.1804 475.533 69.0707 474.133 71.1136 472.992L71.8679 472.579C72.1385 472.434 72.4091 472.3 72.6797 472.167C80.0956 468.564 88.2945 467.995 92.6531 467.995C93.3958 467.995 94.0291 467.995 94.5301 468.03C95.7507 468.082 96.9943 468.082 98.2207 468.03C98.6756 468.03 99.2283 467.978 99.8674 467.937C106.42 467.53 121.747 466.577 127.216 476.925C129.917 482.044 133.147 486.704 136.273 491.207C141.593 498.882 146.637 506.128 147.668 513.977C149.285 526.057 145.52 529.084 140.816 531.507C136.112 533.929 118.614 535.324 109.212 536.068H109.201Z"
        fill="#ededed" />
    <path
        d="M78.3256 504C83.2062 504 87.1628 500.02 87.1628 495.111C87.1628 490.202 83.2062 486.222 78.3256 486.222C73.4449 486.222 69.4884 490.202 69.4884 495.111C69.4884 500.02 73.4449 504 78.3256 504Z"
        fill="#ededed" />
    <path
        d="M113.674 504C118.555 504 122.512 500.02 122.512 495.111C122.512 490.202 118.555 486.222 113.674 486.222C108.794 486.222 104.837 490.202 104.837 495.111C104.837 500.02 108.794 504 113.674 504Z"
        fill="#ededed" />
    <path
        d="M174.12 341.114C174.12 334.537 172.933 331.357 168.503 327.182L170.682 329.367L59.6817 217.893L58.0283 216.427C53.9183 212.428 50.7393 211.498 44.5591 211.498C31.9512 211.498 21.7307 221.744 21.7307 234.384C21.7307 240.953 23.6488 245.19 28.0693 249.364L134.798 357.965C138.963 362.407 144.731 364 151.291 364C163.899 364 174.12 353.753 174.12 341.114Z"
        fill="#ededed" />
    <path
        d="M41.4541 363.943C48.0309 363.943 51.2107 362.757 55.3854 358.326L53.2003 360.506L170.896 243.108L166.141 247.852C170.14 243.742 171.07 240.563 171.07 234.383C171.07 221.775 160.823 211.554 148.183 211.554C141.615 211.554 137.377 213.472 133.204 217.893L24.6021 324.622C20.1603 328.786 18.5676 334.555 18.5676 341.115C18.5676 353.723 28.8144 363.943 41.4541 363.943Z"
        fill="#ededed" />
    <path
        d="M99.0491 164.832C97.7053 166.389 95.2947 166.389 93.9509 164.832L33.0443 94.2371C24.4442 87.1177 19 76.5806 19 64.8225C19 43.3814 37.1033 26 59.4348 26C76.011 26 90.2579 35.577 96.5 49.2824C102.742 35.577 116.989 26 133.565 26C155.897 26 174 43.3814 174 64.8225C174 76.5803 168.556 87.1177 159.956 94.2367L99.0491 164.832Z"
        fill="#ededed" />
</svg>