<svg width="172" height="676" viewBox="0 0 172 676" fill="none" xmlns="http://www.w3.org/2000/svg">
<path d="M169.999 586.528C168.696 580.758 166.875 575.118 164.559 569.677C165.211 567.226 165.862 564.703 166.37 562.101C171.068 538.387 169.875 513.156 163.321 497.815C163.146 497.4 162.879 497.031 162.54 496.735C162.202 496.439 161.8 496.225 161.367 496.109C160.939 495.988 160.489 495.968 160.052 496.048C159.615 496.128 159.202 496.308 158.845 496.573C156.891 497.985 154.102 499.841 150.844 501.926C143.091 506.959 132.322 513.973 122.698 522.392C113.999 519.382 104.647 518.808 95.6471 520.732C89.2596 522.072 82.6648 522.072 76.2773 520.732C67.6015 518.907 58.6006 519.393 50.1706 522.144C40.6323 513.816 30.0124 506.9 22.3505 501.926C19.0929 499.815 16.2913 497.958 14.3367 496.573C13.9806 496.308 13.5688 496.129 13.1329 496.048C12.697 495.968 12.2486 495.988 11.8218 496.109C11.3884 496.226 10.9871 496.44 10.6485 496.735C10.3098 497.031 10.0427 497.4 9.86727 497.815C3.3455 513.156 2.14669 538.387 6.8507 562.101C7.24162 564.062 7.7042 566.023 8.18633 567.906C5.49675 573.889 3.41018 580.128 1.95775 586.528C0.166748 594.345 -0.400354 602.394 0.276811 610.386C0.276811 610.818 0.335448 611.171 0.354994 611.452C0.37454 611.733 0.354994 612.106 0.394086 612.57C0.524391 616.629 0.830608 626.133 4.30324 635.611C8.70104 647.743 16.5063 655.22 27.5171 657.737C35.2246 659.521 41.1079 660.593 45.7598 661.26C46.4686 662.317 47.0917 663.43 47.6232 664.587C48.3441 666.148 49.6163 667.384 51.1935 668.058C57.3439 670.673 73.9448 676 86.0045 676C98.0643 676 114.672 670.647 120.822 668.058C122.399 667.384 123.672 666.148 124.392 664.587C124.924 663.43 125.547 662.317 126.256 661.26C130.921 660.607 136.804 659.521 144.499 657.737C155.509 655.188 163.315 647.743 167.712 635.611C171.146 626.133 171.459 616.655 171.622 612.57C171.622 612.112 171.622 611.733 171.661 611.452C171.7 611.171 171.706 610.798 171.739 610.386C172.397 602.391 171.81 594.342 169.999 586.528ZM100.938 649.076L99.5628 649.187H99.3934C96.8915 649.664 94.6047 651.377 92.6827 653.384H80.1408C78.1862 651.377 75.9255 649.664 73.4236 649.187L71.886 649.056C61.2466 648.22 41.4467 646.664 36.1368 643.925C31.1461 641.311 27.908 638.572 28.3967 624.054C28.6247 617.132 31.2699 609.471 35.9413 601.719L36.1107 601.562C36.2134 601.473 36.3033 601.369 36.3778 601.255C40.6088 594.486 45.6815 588.286 51.4737 582.802C53.3883 580.975 55.5274 579.4 57.8391 578.116L58.6926 577.652C58.9988 577.488 59.305 577.338 59.6112 577.188C68.0029 573.135 77.2806 572.494 82.2127 572.494C83.0531 572.494 83.7698 572.494 84.3366 572.534C85.7179 572.592 87.1252 572.592 88.5129 572.534C89.0276 572.534 89.6531 572.475 90.3763 572.429C97.7906 571.971 115.134 570.899 121.324 582.541C124.379 588.3 128.034 593.542 131.572 598.608C137.592 607.242 143.3 615.393 144.466 624.224C146.297 637.814 142.036 641.219 136.713 643.945C131.39 646.671 111.59 648.239 100.951 649.076H100.938Z" fill="#F6F6F6"/>
<path d="M66 613C71.5229 613 76 608.523 76 603C76 597.477 71.5229 593 66 593C60.4772 593 56 597.477 56 603C56 608.523 60.4772 613 66 613Z" fill="#F6F6F6"/>
<path d="M106 613C111.523 613 116 608.523 116 603C116 597.477 111.523 593 106 593C100.477 593 96 597.477 96 603C96 608.523 100.477 613 106 613Z" fill="#F6F6F6"/>
<path d="M166.688 389.561C166.688 382.683 165.447 379.357 160.813 374.991L163.092 377.276L47 260.688L45.2708 259.155C40.9723 254.972 37.6474 254 31.1837 254C17.9975 254 7.30815 264.717 7.30815 277.936C7.30815 284.806 9.31425 289.238 13.9375 293.603L125.562 407.186C129.918 411.832 135.951 413.498 142.812 413.498C155.998 413.498 166.688 402.781 166.688 389.561Z" fill="#F6F6F6"/>
<path d="M27.9363 413.439C34.8148 413.439 38.1404 412.198 42.5067 407.564L40.2213 409.843L163.316 287.061L158.343 292.022C162.525 287.723 163.498 284.398 163.498 277.935C163.498 264.748 152.781 254.059 139.561 254.059C132.692 254.059 128.26 256.065 123.895 260.688L10.3113 372.313C5.66575 376.669 4 382.702 4 389.563C4 402.749 14.7168 413.439 27.9363 413.439Z" fill="#F6F6F6"/>
<mask id="mask0_107_47" style="mask-type:alpha" maskUnits="userSpaceOnUse" x="3" y="10" width="166" height="150">
<path d="M83.2891 158.114C84.7181 159.767 87.2817 159.767 88.7107 158.114L153.481 83.1803C145.949 89.4038 136.141 93.1667 125.417 93.1667C107.789 93.1667 92.638 83.0011 85.9999 68.4535C79.3618 83.0011 64.2111 93.1667 46.5832 93.1667C35.8583 93.1667 26.0503 89.4038 18.5186 83.1806L83.2891 158.114Z" fill="white"/>
<path fill-rule="evenodd" clip-rule="evenodd" d="M46.5833 93.1667C64.2111 93.1667 79.3618 83.0011 85.9999 68.4535C83.6951 63.4024 82.4166 57.8235 82.4166 51.9583C82.4166 46.0931 83.6951 40.5142 85.9999 35.4632C79.3618 20.9155 64.2111 10.75 46.5833 10.75C22.835 10.75 3.58325 29.1996 3.58325 51.9583C3.58325 64.4391 9.37281 75.6237 18.5186 83.1806C26.0503 89.4038 35.8583 93.1667 46.5833 93.1667Z" fill="white"/>
<path d="M89.5832 51.9583C89.5832 46.0931 88.3046 40.5143 85.9998 35.4633C83.695 40.5143 82.4165 46.0931 82.4165 51.9583C82.4165 57.8235 83.695 63.4024 85.9998 68.4535C88.3046 63.4028 89.5832 57.8235 89.5832 51.9583Z" fill="white"/>
<path d="M168.417 51.9583C168.417 29.1996 149.165 10.75 125.417 10.75C107.789 10.75 92.6381 20.9155 86 35.4632C88.3048 40.5142 89.5833 46.0931 89.5833 51.9583C89.5833 57.8235 88.3048 63.4028 86 68.4535C92.6381 83.0011 107.789 93.1667 125.417 93.1667C136.142 93.1667 145.95 89.4038 153.481 83.1803C162.627 75.6237 168.417 64.4387 168.417 51.9583Z" fill="white"/>
</mask>
<g mask="url(#mask0_107_47)">
<path d="M83.2891 158.114C84.7181 159.767 87.2817 159.767 88.7107 158.114L153.481 83.1803C145.949 89.4038 136.141 93.1667 125.417 93.1667C107.789 93.1667 92.638 83.0011 85.9999 68.4535C79.3618 83.0011 64.2111 93.1667 46.5832 93.1667C35.8583 93.1667 26.0503 89.4038 18.5186 83.1806L83.2891 158.114Z" fill="#F6F6F6"/>
<path fill-rule="evenodd" clip-rule="evenodd" d="M46.5833 93.1667C64.2111 93.1667 79.3618 83.0011 85.9999 68.4535C83.6951 63.4024 82.4166 57.8235 82.4166 51.9583C82.4166 46.0931 83.6951 40.5142 85.9999 35.4632C79.3618 20.9155 64.2111 10.75 46.5833 10.75C22.835 10.75 3.58325 29.1996 3.58325 51.9583C3.58325 64.4391 9.37281 75.6237 18.5186 83.1806C26.0503 89.4038 35.8583 93.1667 46.5833 93.1667Z" fill="#F6F6F6"/>
<path d="M89.5834 51.9583C89.5834 46.0931 88.3049 40.5143 86.0001 35.4633C83.6953 40.5143 82.4167 46.0931 82.4167 51.9583C82.4167 57.8235 83.6953 63.4024 86.0001 68.4535C88.3049 63.4028 89.5834 57.8235 89.5834 51.9583Z" fill="#F6F6F6"/>
<path d="M168.417 51.9583C168.417 29.1996 149.165 10.75 125.417 10.75C107.789 10.75 92.6381 20.9155 86 35.4632C88.3048 40.5142 89.5833 46.0931 89.5833 51.9583C89.5833 57.8235 88.3048 63.4028 86 68.4535C92.6381 83.0011 107.789 93.1667 125.417 93.1667C136.142 93.1667 145.95 89.4038 153.481 83.1803C162.627 75.6237 168.417 64.4387 168.417 51.9583Z" fill="#F6F6F6"/>
<path d="M153.481 83.1803L154.623 84.5617L154.739 84.466L154.837 84.3521L153.481 83.1803ZM86 35.4633L87.6301 34.7195L86 31.1474L84.3699 34.7195L86 35.4633ZM18.5187 83.1807L17.1632 84.3521L17.2615 84.466L17.3774 84.5617L18.5187 83.1807ZM84.3699 36.2071C86.5708 41.0306 87.7917 46.3565 87.7917 51.9584H91.375C91.375 45.8298 90.0384 39.9975 87.6301 34.7195L84.3699 36.2071ZM87.7917 51.9584C87.7917 57.5602 86.5708 62.8861 84.3699 67.7096L87.6301 69.1971C90.0384 63.9192 91.375 58.0869 91.375 51.9584H87.7917ZM84.3699 69.1971C91.3026 84.39 107.094 94.9584 125.417 94.9584V91.375C108.483 91.375 93.974 81.6122 87.6301 67.7096L84.3699 69.1971ZM125.417 94.9584C136.566 94.9584 146.775 91.0454 154.623 84.5617L152.34 81.7993C145.124 87.7619 135.718 91.375 125.417 91.375V94.9584ZM84.3699 67.7096C78.026 81.6122 63.5171 91.375 46.5833 91.375V94.9584C64.9056 94.9584 80.6974 84.39 87.6301 69.1971L84.3699 67.7096ZM87.6301 67.7096C85.4292 62.8861 84.2083 57.5602 84.2083 51.9584H80.625C80.625 58.0869 81.9616 63.9192 84.3699 69.1971L87.6301 67.7096ZM84.2083 51.9584C84.2083 46.3565 85.4292 41.0306 87.6301 36.2071L84.3699 34.7195C81.9616 39.9975 80.625 45.8298 80.625 51.9584H84.2083ZM154.837 84.3521L163.538 74.2858L160.827 71.9426L152.126 82.0089L154.837 84.3521ZM46.5833 91.375C36.2823 91.375 26.8763 87.7619 19.6599 81.7993L17.3774 84.5617C25.2245 91.0457 35.4343 94.9584 46.5833 94.9584V91.375ZM8.46201 74.2858L17.1632 84.3521L19.8741 82.0089L11.173 71.9426L8.46201 74.2858ZM83.2892 158.114L86 155.77L83.2892 158.114ZM88.7108 158.114L86 155.77L88.7108 158.114ZM153.481 83.1803L151.199 80.4183L150.967 80.6096L150.771 80.8372L153.481 83.1803ZM86 35.4633L82.7399 36.951L86 44.0951L89.2601 36.951L86 35.4633ZM18.5187 83.1807L21.2296 80.8372L21.0329 80.6096L20.8011 80.4183L18.5187 83.1807ZM80.5781 160.457C83.4365 163.764 88.5635 163.764 91.4219 160.457L86 155.77L80.5781 160.457ZM125.417 14.3334C147.331 14.3334 164.833 31.3208 164.833 51.9584H172C172 27.0784 150.999 7.16669 125.417 7.16669V14.3334ZM7.16667 51.9584C7.16667 31.3208 24.6688 14.3334 46.5833 14.3334V7.16669C21.0013 7.16669 0 27.0784 0 51.9584H7.16667ZM155.764 85.9427C165.674 77.7548 172 65.5829 172 51.9584H164.833C164.833 63.2949 159.581 73.4928 151.199 80.4183L155.764 85.9427ZM125.417 7.16669C106.4 7.16669 89.9668 18.1379 82.7399 33.9758L89.2601 36.951C95.3095 23.6933 109.177 14.3334 125.417 14.3334V7.16669ZM46.5833 14.3334C62.823 14.3334 76.6905 23.6933 82.7399 36.951L89.2601 33.9758C82.0332 18.1379 65.5997 7.16669 46.5833 7.16669V14.3334ZM91.4219 160.457L156.192 85.5238L150.771 80.8372L86 155.77L91.4219 160.457ZM15.8077 85.5238L80.5781 160.457L86 155.77L21.2296 80.8372L15.8077 85.5238ZM20.8011 80.4183C12.4194 73.4928 7.16667 63.2949 7.16667 51.9584H0C0 65.5829 6.32634 77.7548 16.2362 85.943L20.8011 80.4183Z" fill="#F6F6F6"/>
</g>
</svg>
