<svg width="163" height="160" viewBox="0 0 163 160" fill="none" xmlns="http://www.w3.org/2000/svg">
    <path
        d="M162.688 135.792C162.688 128.913 161.447 125.588 156.813 121.221L159.092 123.507L43 6.91867L41.2708 5.38546C36.9723 1.20266 33.6474 0.230264 27.1837 0.230225C13.9975 0.230224 3.30815 10.9469 3.30815 24.1667C3.30815 31.0365 5.31425 35.4682 9.93748 39.8333L121.562 153.417C125.918 158.062 131.951 159.728 138.812 159.728C151.998 159.728 162.688 149.011 162.688 135.792Z"
        fill="currentColor" />
    <path
        d="M23.9363 159.669C30.8148 159.669 34.1404 158.428 38.5067 153.794L36.2213 156.074L159.316 33.2908L154.343 38.252C158.525 33.9535 159.498 30.6286 159.498 24.1649C159.498 10.9787 148.781 0.289341 135.561 0.28934C128.692 0.289339 124.26 2.29544 119.895 6.91867L6.31131 118.544C1.66575 122.899 5.99809e-07 128.932 0 135.793C-1.15277e-06 148.979 10.7168 159.669 23.9363 159.669Z"
        fill="currentColor" />
</svg>