<svg width="173" height="180" viewBox="0 0 173 180" fill="none" xmlns="http://www.w3.org/2000/svg">
    <path
        d="M170.466 90.5282C169.163 84.7581 167.342 79.1181 165.026 73.6771C165.678 71.2259 166.329 68.7028 166.837 66.1012C171.535 42.3868 170.342 17.1558 163.788 1.81462C163.613 1.39984 163.346 1.03058 163.007 0.734942C162.669 0.439307 162.267 0.225089 161.834 0.108593C161.406 -0.0116542 160.956 -0.0323535 160.519 0.048072C160.082 0.128498 159.67 0.307926 159.312 0.572685C157.358 1.98457 154.569 3.84094 151.311 5.92609C143.558 10.9592 132.789 17.9729 123.166 26.3919C114.467 23.3815 105.114 22.8075 96.1142 24.7316C89.7266 26.0716 83.1319 26.0716 76.7443 24.7316C68.0685 22.9066 59.0676 23.3934 50.6377 26.1435C41.0993 17.816 30.4795 10.9004 22.8175 5.92609C19.5599 3.8148 16.7584 1.95843 14.8038 0.572685C14.4476 0.308034 14.0358 0.128626 13.5999 0.0481868C13.1641 -0.0322521 12.7156 -0.0115898 12.2889 0.108593C11.8554 0.225535 11.4542 0.439917 11.1155 0.735498C10.7769 1.03108 10.5097 1.40011 10.3343 1.81462C3.81254 17.1558 2.61373 42.3868 7.31774 66.1012C7.70866 68.0622 8.17124 70.0231 8.65337 71.9057C5.96379 77.8894 3.87722 84.128 2.42479 90.5282C0.633789 98.3453 0.0666868 106.394 0.743852 114.386C0.743852 114.818 0.802489 115.171 0.822035 115.452C0.841581 115.733 0.822035 116.106 0.861127 116.57C0.991432 120.629 1.29765 130.133 4.77028 139.611C9.16808 151.743 16.9734 159.22 27.9841 161.737C35.6917 163.521 41.575 164.593 46.2269 165.26C46.9357 166.317 47.5588 167.43 48.0902 168.587C48.8111 170.148 50.0833 171.384 51.6606 172.058C57.811 174.673 74.4118 180 86.4716 180C98.5313 180 115.139 174.647 121.289 172.058C122.866 171.384 124.139 170.148 124.859 168.587C125.391 167.43 126.014 166.317 126.723 165.26C131.388 164.607 137.271 163.521 144.966 161.737C155.976 159.188 163.782 151.743 168.179 139.611C171.613 130.133 171.926 120.655 172.089 116.57C172.089 116.112 172.089 115.733 172.128 115.452C172.167 115.171 172.173 114.798 172.206 114.386C172.864 106.391 172.277 98.3422 170.466 90.5282ZM101.405 153.076L100.03 153.187H99.8604C97.3586 153.664 95.0717 155.377 93.1497 157.384H80.6079C78.6533 155.377 76.3925 153.664 73.8906 153.187L72.353 153.056C61.7136 152.22 41.9138 150.664 36.6038 147.925C31.6131 145.311 28.3751 142.572 28.8637 128.054C29.0917 121.132 31.7369 113.471 36.4084 105.719L36.5778 105.562C36.6805 105.473 36.7704 105.369 36.8449 105.255C41.0758 98.4863 46.1486 92.2855 51.9407 86.8024C53.8554 84.9751 55.9944 83.4002 58.3061 82.1157L59.1596 81.6516C59.4659 81.4882 59.7721 81.3379 60.0783 81.1875C68.4699 77.1349 77.7477 76.4943 82.6797 76.4943C83.5202 76.4943 84.2369 76.4943 84.8037 76.5335C86.1849 76.5923 87.5922 76.5923 88.98 76.5335C89.4947 76.5335 90.1201 76.4747 90.8433 76.4289C98.2577 75.9714 115.601 74.8994 121.791 86.5409C124.846 92.2996 128.502 97.5419 132.039 102.608C138.059 111.242 143.767 119.393 144.933 128.224C146.764 141.814 142.503 145.219 137.18 147.945C131.857 150.671 112.057 152.239 101.418 153.076H101.405Z"
        fill="currentColor" />
    <path
        d="M66.467 117C71.9899 117 76.467 112.523 76.467 107C76.467 101.477 71.9899 97 66.467 97C60.9442 97 56.467 101.477 56.467 107C56.467 112.523 60.9442 117 66.467 117Z"
        fill="currentColor" />
    <path
        d="M106.467 117C111.99 117 116.467 112.523 116.467 107C116.467 101.477 111.99 97 106.467 97C100.944 97 96.467 101.477 96.467 107C96.467 112.523 100.944 117 106.467 117Z"
        fill="currentColor" />
</svg>