<svg width="120" height="126" viewBox="0 0 120 126" fill="none" xmlns="http://www.w3.org/2000/svg">
    <path
        d="M118.604 63.3697C117.695 59.3307 116.424 55.3827 114.809 51.5739C115.263 49.8581 115.718 48.0919 116.072 46.2709C119.35 29.6707 118.518 12.0091 113.945 1.27024C113.823 0.979888 113.637 0.721405 113.4 0.51446C113.164 0.307515 112.884 0.157562 112.581 0.076015C112.283 -0.00815793 111.969 -0.0226475 111.664 0.0336504C111.36 0.0899483 111.071 0.215548 110.822 0.40088C109.459 1.3892 107.513 2.68866 105.24 4.14826C99.8311 7.67144 92.3173 12.581 85.6036 18.4743C79.5345 16.3671 73.0095 15.9653 66.7306 17.3121C62.2741 18.2501 57.6731 18.2501 53.2167 17.3121C47.1638 16.0346 40.8841 16.3754 35.0028 18.3005C28.3481 12.4712 20.9389 7.63026 15.5934 4.14826C13.3206 2.67036 11.366 1.3709 10.0024 0.40088C9.75389 0.215624 9.4666 0.090038 9.16249 0.0337308C8.85838 -0.0225765 8.5455 -0.00811287 8.2478 0.076015C7.94538 0.157874 7.66543 0.307942 7.42917 0.514849C7.19291 0.721755 7.00653 0.980074 6.88414 1.27024C2.33407 12.0091 1.49769 29.6707 4.77956 46.2709C5.05229 47.6435 5.37503 49.0162 5.71139 50.334C3.83494 54.5226 2.3792 58.8896 1.36587 63.3697C0.116336 68.8417 -0.279317 74.4761 0.193124 80.0705C0.193124 80.3725 0.234034 80.6196 0.24767 80.8163C0.261307 81.0131 0.24767 81.2739 0.274944 81.5988C0.365854 84.4402 0.579494 91.0931 3.00226 97.7276C6.07049 106.22 11.516 111.454 19.198 113.216C24.5753 114.465 28.6799 115.215 31.9255 115.682C32.42 116.422 32.8547 117.201 33.2255 118.011C33.7284 119.103 34.616 119.969 35.7164 120.441C40.0074 122.271 51.5894 126 60.0032 126C68.4169 126 80.0035 122.253 84.2945 120.441C85.3949 119.969 86.2824 119.103 86.7854 118.011C87.1562 117.201 87.5909 116.422 88.0854 115.682C91.34 115.225 95.4446 114.465 100.813 113.216C108.495 111.431 113.94 106.22 117.009 97.7276C119.404 91.0931 119.622 84.4585 119.736 81.5988C119.736 81.2785 119.736 81.0131 119.763 80.8163C119.79 80.6196 119.795 80.3588 119.818 80.0705C120.277 74.4739 119.867 68.8395 118.604 63.3697ZM70.4215 107.153L69.4624 107.231H69.3442C67.5987 107.565 66.0033 108.764 64.6623 110.169H55.9122C54.5485 108.764 52.9712 107.565 51.2258 107.231L50.153 107.14C42.7302 106.554 28.9163 105.465 25.2117 103.548C21.7298 101.717 19.4707 99.8003 19.8116 89.638C19.9707 84.7925 21.8162 79.43 25.0753 74.0033L25.1935 73.8935C25.2652 73.8308 25.3279 73.7584 25.3799 73.6785C28.3317 68.9404 31.8708 64.5999 35.9119 60.7617C37.2477 59.4826 38.74 58.3801 40.3529 57.481L40.9483 57.1561C41.162 57.0417 41.3756 56.9365 41.5892 56.8313C47.4439 53.9944 53.9167 53.546 57.3577 53.546C57.944 53.546 58.4441 53.546 58.8395 53.5735C59.8032 53.6146 60.785 53.6146 61.7532 53.5735C62.1123 53.5735 62.5487 53.5323 63.0532 53.5003C68.226 53.18 80.3262 52.4296 84.6445 60.5786C86.7763 64.6097 89.3264 68.2793 91.7946 71.8254C95.9947 77.8697 99.9765 83.5754 100.79 89.757C102.067 99.2696 99.0947 101.653 95.381 103.561C91.6673 105.469 77.8535 106.568 70.4306 107.153H70.4215Z"
        fill="currentColor" />
    <path
        d="M46.0465 81.9C49.8997 81.9 53.0233 78.766 53.0233 74.9C53.0233 71.034 49.8997 67.9 46.0465 67.9C42.1934 67.9 39.0698 71.034 39.0698 74.9C39.0698 78.766 42.1934 81.9 46.0465 81.9Z"
        fill="currentColor" />
    <path
        d="M73.9535 81.9C77.8066 81.9 80.9302 78.766 80.9302 74.9C80.9302 71.034 77.8066 67.9 73.9535 67.9C70.1003 67.9 66.9767 71.034 66.9767 74.9C66.9767 78.766 70.1003 81.9 73.9535 81.9Z"
        fill="currentColor" />
</svg>